<?xml version="1.0" encoding="UTF-8" standalone="no"?>
<!-- Created with Inkscape (http://www.inkscape.org/) -->

<svg
   xmlns:dc="http://purl.org/dc/elements/1.1/"
   xmlns:cc="http://creativecommons.org/ns#"
   xmlns:rdf="http://www.w3.org/1999/02/22-rdf-syntax-ns#"
   xmlns:svg="http://www.w3.org/2000/svg"
   xmlns="http://www.w3.org/2000/svg"
   xmlns:sodipodi="http://sodipodi.sourceforge.net/DTD/sodipodi-0.dtd"
   xmlns:inkscape="http://www.inkscape.org/namespaces/inkscape"
   width="3480.4048mm"
   height="181.47821mm"
   viewBox="0 0 3480.4048 181.47821"
   version="1.1"
   id="svg8"
   inkscape:version="0.92.4 (5da689c313, 2019-01-14)"
   sodipodi:docname="rounded.svg">
  <defs
     id="defs2">
    <inkscape:perspective
       sodipodi:type="inkscape:persp3d"
       inkscape:vp_x="0 : 148.49999 : 1"
       inkscape:vp_y="0 : 999.99994 : 0"
       inkscape:vp_z="210 : 148.49999 : 1"
       inkscape:persp3d-origin="105 : 98.999994 : 1"
       id="perspective820" />
  </defs>
  <sodipodi:namedview
     id="base"
     pagecolor="#ffffff"
     bordercolor="#666666"
     borderopacity="1.0"
     inkscape:pageopacity="0.0"
     inkscape:pageshadow="2"
     inkscape:zoom="0.0875"
     inkscape:cx="6101.1973"
     inkscape:cy="-1963.9719"
     inkscape:document-units="px"
     inkscape:current-layer="layer1"
     showgrid="false"
     showborder="false"
     inkscape:window-width="1920"
     inkscape:window-height="1017"
     inkscape:window-x="-8"
     inkscape:window-y="-8"
     inkscape:window-maximized="1"
     fit-margin-top="0"
     fit-margin-left="0"
     fit-margin-right="0"
     fit-margin-bottom="0" />
  <metadata
     id="metadata5">
    <rdf:RDF>
      <cc:Work
         rdf:about="">
        <dc:format>image/svg+xml</dc:format>
        <dc:type
           rdf:resource="http://purl.org/dc/dcmitype/StillImage" />
        <dc:title></dc:title>
      </cc:Work>
    </rdf:RDF>
  </metadata>
  <g
     inkscape:label="Layer 1"
     inkscape:groupmode="layer"
     id="layer1"
     transform="translate(1052.2856,217.04761)">
    <path
       style="fill:#7000ac;fill-opacity:1;stroke:none;stroke-width:0.26458332px;stroke-linecap:butt;stroke-linejoin:miter;stroke-opacity:1"
       d="m -1052.2856,-217.04761 c 0,0 -10e-5,84.66665 25.7023,96.76189 25.7024,12.09523 58.96421,-65.01191 126.99994,-61.9881 68.03572,3.02381 149.67857,72.57143 222.25,68.03572 72.57142,-4.53572 71.05951,-142.11905 125.48809,-87.69048 54.42857,54.42857 16.63096,131.535718 51.40475,134.559527 34.77382,3.023809 54.42858,-111.880957 87.69049,-114.904767 33.2619,-3.02381 145.14284,18.14286 175.38094,40.82143 30.2381,22.67857 61.9881,-68.03571 130.02381,-48.38095 68.035711,19.65476 22.678569,113.392857 95.249997,104.321429 72.571428,-9.071427 10.5833338,-71.059529 54.428571,-86.178569 43.845238,-15.11905 63.500002,6.04762 145.142862,6.04762 81.64287,0 102.80953,-51.40477 145.14286,-28.72619 42.33334,22.67857 25.70237,99.785712 89.20237,92.22619 63.5,-7.55953 48.38097,40.821425 78.61906,42.333331 30.23809,1.511903 -15.11906,-117.928571 48.38094,-113.392861 63.5,4.53572 55.94048,95.250004 116.41666,96.761907 60.47619,1.511906 80.13097,-98.273807 166.30952,-95.249997 86.17857,3.02381 46.86906,139.095235 95.25,136.071426 48.38096,-3.023809 21.16666,-86.178576 74.08334,-84.666666 52.9167,1.5119 52.9167,36.285715 101.2977,34.773809 48.3809,-1.511905 15.119,-110.369049 96.7619,-111.880949 81.6428,-1.51191 107.3452,37.79761 181.4285,37.79761 74.0834,0 110.3691,-42.33333 201.0834,-37.79761 90.7142,4.53571 68.0357,90.71428 108.8571,90.71428 40.8214,0 86.1786,-69.54762 185.9643,-71.05952 99.7857,-1.51191 116.4167,74.08333 199.5714,74.08333 83.1548,0 30.2381,-80.13095 84.6667,-83.15476 54.4286,-3.02381 51.4047,114.904762 110.369,114.904762 58.9643,0 51.4048,-95.250002 98.2738,-96.761902 46.8691,-1.51191 58.9644,-48.38094 58.9644,-48.38094 z"
       id="path4583"
       inkscape:connector-curvature="0" />
  </g>
</svg>
